<mxfile host="app.diagrams.net" agent="Mozilla/5.0 (Macintosh; Intel Mac OS X 10_15_7) AppleWebKit/537.36 (KHTML, like Gecko) Chrome/124.0.0.0 Safari/537.36" version="24.7.6">
  <diagram name="Page-1" id="xePpAwtWUjEFdL4y1r4D">
    <mxGraphModel dx="1922" dy="722" grid="1" gridSize="10" guides="1" tooltips="1" connect="1" arrows="1" fold="1" page="1" pageScale="1" pageWidth="1100" pageHeight="850" math="0" shadow="0">
      <root>
        <mxCell id="0" />
        <mxCell id="1" parent="0" />
        <mxCell id="pcEnY2RNjyqCKXGkyiXo-41" value="" style="rounded=0;whiteSpace=wrap;html=1;" parent="1" vertex="1">
          <mxGeometry x="490" y="220" width="290" height="210" as="geometry" />
        </mxCell>
        <mxCell id="qipjCbiUXeIvuoldf0_X-224" style="edgeStyle=orthogonalEdgeStyle;rounded=0;orthogonalLoop=1;jettySize=auto;html=1;entryX=0.5;entryY=0;entryDx=0;entryDy=0;" parent="1" source="pcEnY2RNjyqCKXGkyiXo-3" target="qipjCbiUXeIvuoldf0_X-213" edge="1">
          <mxGeometry relative="1" as="geometry" />
        </mxCell>
        <mxCell id="pcEnY2RNjyqCKXGkyiXo-3" value="&lt;b&gt;Input&lt;/b&gt;" style="ellipse;whiteSpace=wrap;html=1;aspect=fixed;" parent="1" vertex="1">
          <mxGeometry x="270" y="112.5" width="60" height="60" as="geometry" />
        </mxCell>
        <mxCell id="qipjCbiUXeIvuoldf0_X-221" style="edgeStyle=orthogonalEdgeStyle;rounded=0;orthogonalLoop=1;jettySize=auto;html=1;entryX=0.5;entryY=0;entryDx=0;entryDy=0;" parent="1" source="pcEnY2RNjyqCKXGkyiXo-23" target="pcEnY2RNjyqCKXGkyiXo-30" edge="1">
          <mxGeometry relative="1" as="geometry" />
        </mxCell>
        <mxCell id="qipjCbiUXeIvuoldf0_X-222" style="edgeStyle=orthogonalEdgeStyle;rounded=0;orthogonalLoop=1;jettySize=auto;html=1;entryX=0;entryY=0.5;entryDx=0;entryDy=0;" parent="1" source="pcEnY2RNjyqCKXGkyiXo-23" target="qipjCbiUXeIvuoldf0_X-158" edge="1">
          <mxGeometry relative="1" as="geometry">
            <Array as="points">
              <mxPoint x="10" y="280" />
              <mxPoint x="10" y="840" />
            </Array>
          </mxGeometry>
        </mxCell>
        <mxCell id="pcEnY2RNjyqCKXGkyiXo-23" value="&lt;div&gt;all_intact_palmprints.faa&lt;/div&gt;" style="rounded=0;whiteSpace=wrap;html=1;" parent="1" vertex="1">
          <mxGeometry x="230" y="270" width="140" height="20" as="geometry" />
        </mxCell>
        <mxCell id="pcEnY2RNjyqCKXGkyiXo-28" style="edgeStyle=none;rounded=0;orthogonalLoop=1;jettySize=auto;html=1;entryX=0.5;entryY=0;entryDx=0;entryDy=0;" parent="1" source="pcEnY2RNjyqCKXGkyiXo-25" target="pcEnY2RNjyqCKXGkyiXo-26" edge="1">
          <mxGeometry relative="1" as="geometry" />
        </mxCell>
        <mxCell id="pcEnY2RNjyqCKXGkyiXo-25" value="&lt;div&gt;existing_sOTUs.faa&lt;/div&gt;" style="rounded=0;whiteSpace=wrap;html=1;" parent="1" vertex="1">
          <mxGeometry x="80" y="320" width="120" height="20" as="geometry" />
        </mxCell>
        <mxCell id="pcEnY2RNjyqCKXGkyiXo-29" style="edgeStyle=none;rounded=0;orthogonalLoop=1;jettySize=auto;html=1;entryX=0.5;entryY=0;entryDx=0;entryDy=0;" parent="1" source="pcEnY2RNjyqCKXGkyiXo-26" target="pcEnY2RNjyqCKXGkyiXo-27" edge="1">
          <mxGeometry relative="1" as="geometry" />
        </mxCell>
        <mxCell id="pcEnY2RNjyqCKXGkyiXo-26" value="&lt;div&gt;usearch&lt;/div&gt;&lt;div&gt;(makeudb_search)&lt;br&gt;&lt;/div&gt;" style="rounded=1;whiteSpace=wrap;html=1;fillColor=#f5f5f5;strokeColor=#666666;fontColor=#333333;" parent="1" vertex="1">
          <mxGeometry x="80" y="370" width="120" height="40" as="geometry" />
        </mxCell>
        <mxCell id="qipjCbiUXeIvuoldf0_X-220" style="edgeStyle=orthogonalEdgeStyle;rounded=0;orthogonalLoop=1;jettySize=auto;html=1;" parent="1" source="pcEnY2RNjyqCKXGkyiXo-27" target="pcEnY2RNjyqCKXGkyiXo-30" edge="1">
          <mxGeometry relative="1" as="geometry" />
        </mxCell>
        <mxCell id="7p6EoumD7oMu688esFDc-22" style="edgeStyle=orthogonalEdgeStyle;rounded=0;orthogonalLoop=1;jettySize=auto;html=1;entryX=0.5;entryY=0;entryDx=0;entryDy=0;" parent="1" source="pcEnY2RNjyqCKXGkyiXo-27" target="7p6EoumD7oMu688esFDc-19" edge="1">
          <mxGeometry relative="1" as="geometry">
            <Array as="points">
              <mxPoint x="40" y="450" />
              <mxPoint x="40" y="1360" />
              <mxPoint x="170" y="1360" />
            </Array>
          </mxGeometry>
        </mxCell>
        <mxCell id="pcEnY2RNjyqCKXGkyiXo-27" value="&lt;div&gt;existing_sOTUs.udb&lt;/div&gt;" style="rounded=0;whiteSpace=wrap;html=1;" parent="1" vertex="1">
          <mxGeometry x="80" y="440" width="120" height="20" as="geometry" />
        </mxCell>
        <mxCell id="qipjCbiUXeIvuoldf0_X-120" style="edgeStyle=orthogonalEdgeStyle;rounded=0;orthogonalLoop=1;jettySize=auto;html=1;entryX=0.5;entryY=0;entryDx=0;entryDy=0;" parent="1" source="pcEnY2RNjyqCKXGkyiXo-30" target="qipjCbiUXeIvuoldf0_X-117" edge="1">
          <mxGeometry relative="1" as="geometry" />
        </mxCell>
        <mxCell id="pcEnY2RNjyqCKXGkyiXo-30" value="&lt;div&gt;usearch&lt;/div&gt;&lt;div&gt;(usearch_global -id 0.9)&lt;br&gt;&lt;/div&gt;" style="rounded=1;whiteSpace=wrap;html=1;fillColor=#f5f5f5;strokeColor=#666666;fontColor=#333333;" parent="1" vertex="1">
          <mxGeometry x="230" y="430" width="140" height="40" as="geometry" />
        </mxCell>
        <mxCell id="pcEnY2RNjyqCKXGkyiXo-35" value="&lt;div&gt;External&lt;/div&gt;&lt;div&gt;Data&lt;br&gt;&lt;/div&gt;" style="ellipse;whiteSpace=wrap;html=1;aspect=fixed;" parent="1" vertex="1">
          <mxGeometry x="510" y="350" width="70" height="70" as="geometry" />
        </mxCell>
        <mxCell id="pcEnY2RNjyqCKXGkyiXo-36" value="&lt;div&gt;File&lt;/div&gt;&lt;div&gt;(concrete data)&lt;br&gt;&lt;/div&gt;" style="rounded=0;whiteSpace=wrap;html=1;" parent="1" vertex="1">
          <mxGeometry x="510" y="252.5" width="95" height="40" as="geometry" />
        </mxCell>
        <mxCell id="pcEnY2RNjyqCKXGkyiXo-37" value="&lt;div&gt;Set&lt;/div&gt;&lt;div&gt;(abstract data)&lt;br&gt;&lt;/div&gt;" style="rounded=0;whiteSpace=wrap;html=1;dashed=1;dashPattern=8 8;" parent="1" vertex="1">
          <mxGeometry x="510" y="302.5" width="95" height="40" as="geometry" />
        </mxCell>
        <mxCell id="pcEnY2RNjyqCKXGkyiXo-38" value="&lt;div&gt;Program&lt;/div&gt;&lt;div&gt;(concrete computation)&lt;br&gt;&lt;/div&gt;" style="rounded=1;whiteSpace=wrap;html=1;fillColor=#f5f5f5;strokeColor=#666666;fontColor=#333333;" parent="1" vertex="1">
          <mxGeometry x="625" y="252.5" width="140" height="40" as="geometry" />
        </mxCell>
        <mxCell id="pcEnY2RNjyqCKXGkyiXo-40" value="Symbol Legend" style="text;html=1;align=center;verticalAlign=middle;whiteSpace=wrap;rounded=0;fontStyle=1" parent="1" vertex="1">
          <mxGeometry x="510" y="227.5" width="95" height="25" as="geometry" />
        </mxCell>
        <mxCell id="pcEnY2RNjyqCKXGkyiXo-48" value="&lt;div&gt;Process&lt;/div&gt;&lt;div&gt;(abstract computation)&lt;br&gt;&lt;/div&gt;" style="rounded=1;whiteSpace=wrap;html=1;fillColor=#f5f5f5;strokeColor=#666666;fontColor=#333333;dashed=1;dashPattern=8 8;" parent="1" vertex="1">
          <mxGeometry x="625" y="302.5" width="140" height="40" as="geometry" />
        </mxCell>
        <mxCell id="qipjCbiUXeIvuoldf0_X-174" style="edgeStyle=orthogonalEdgeStyle;rounded=0;orthogonalLoop=1;jettySize=auto;html=1;entryX=0.5;entryY=0;entryDx=0;entryDy=0;" parent="1" source="qipjCbiUXeIvuoldf0_X-9" target="qipjCbiUXeIvuoldf0_X-166" edge="1">
          <mxGeometry relative="1" as="geometry" />
        </mxCell>
        <mxCell id="qipjCbiUXeIvuoldf0_X-9" value="&lt;div&gt;&lt;span style=&quot;background-color: initial;&quot;&gt;less than 90% identity&lt;/span&gt;&lt;br&gt;&lt;/div&gt;" style="rounded=0;whiteSpace=wrap;html=1;dashed=1;dashPattern=8 8;" parent="1" vertex="1">
          <mxGeometry x="270" y="890" width="180" height="20" as="geometry" />
        </mxCell>
        <mxCell id="qipjCbiUXeIvuoldf0_X-155" style="edgeStyle=orthogonalEdgeStyle;rounded=0;orthogonalLoop=1;jettySize=auto;html=1;entryX=0.5;entryY=0;entryDx=0;entryDy=0;" parent="1" source="qipjCbiUXeIvuoldf0_X-18" target="qipjCbiUXeIvuoldf0_X-23" edge="1">
          <mxGeometry relative="1" as="geometry" />
        </mxCell>
        <mxCell id="qipjCbiUXeIvuoldf0_X-18" value="mapFASTASequences.js" style="rounded=1;whiteSpace=wrap;html=1;fillColor=#f5f5f5;strokeColor=#666666;fontColor=#333333;" parent="1" vertex="1">
          <mxGeometry x="270" y="990" width="180" height="40" as="geometry" />
        </mxCell>
        <mxCell id="qipjCbiUXeIvuoldf0_X-153" style="edgeStyle=orthogonalEdgeStyle;rounded=0;orthogonalLoop=1;jettySize=auto;html=1;entryX=0.5;entryY=0;entryDx=0;entryDy=0;" parent="1" source="qipjCbiUXeIvuoldf0_X-23" target="qipjCbiUXeIvuoldf0_X-27" edge="1">
          <mxGeometry relative="1" as="geometry" />
        </mxCell>
        <mxCell id="qipjCbiUXeIvuoldf0_X-23" value="&lt;div&gt;palmprints.b6.lt90.faa&lt;/div&gt;" style="rounded=0;whiteSpace=wrap;html=1;" parent="1" vertex="1">
          <mxGeometry x="270" y="1060" width="180" height="20" as="geometry" />
        </mxCell>
        <mxCell id="qipjCbiUXeIvuoldf0_X-190" style="edgeStyle=orthogonalEdgeStyle;rounded=0;orthogonalLoop=1;jettySize=auto;html=1;entryX=0.5;entryY=0;entryDx=0;entryDy=0;" parent="1" source="qipjCbiUXeIvuoldf0_X-27" target="qipjCbiUXeIvuoldf0_X-28" edge="1">
          <mxGeometry relative="1" as="geometry" />
        </mxCell>
        <mxCell id="qipjCbiUXeIvuoldf0_X-27" value="&lt;div&gt;usearch&lt;/div&gt;&lt;div&gt;(cluster_fast -id 0.9)&lt;br&gt;&lt;/div&gt;" style="rounded=1;whiteSpace=wrap;html=1;fillColor=#f5f5f5;strokeColor=#666666;fontColor=#333333;" parent="1" vertex="1">
          <mxGeometry x="270" y="1110" width="180" height="40" as="geometry" />
        </mxCell>
        <mxCell id="qipjCbiUXeIvuoldf0_X-37" style="edgeStyle=orthogonalEdgeStyle;rounded=0;orthogonalLoop=1;jettySize=auto;html=1;entryX=0.5;entryY=0;entryDx=0;entryDy=0;" parent="1" source="qipjCbiUXeIvuoldf0_X-28" edge="1">
          <mxGeometry relative="1" as="geometry">
            <mxPoint x="360" y="1230" as="targetPoint" />
          </mxGeometry>
        </mxCell>
        <mxCell id="qipjCbiUXeIvuoldf0_X-28" value="palmprints.b6.lt90.faa.centroids" style="rounded=0;whiteSpace=wrap;html=1;" parent="1" vertex="1">
          <mxGeometry x="270" y="1180" width="180" height="20" as="geometry" />
        </mxCell>
        <mxCell id="qipjCbiUXeIvuoldf0_X-125" style="edgeStyle=orthogonalEdgeStyle;rounded=0;orthogonalLoop=1;jettySize=auto;html=1;entryX=0.5;entryY=0;entryDx=0;entryDy=0;" parent="1" source="qipjCbiUXeIvuoldf0_X-60" target="qipjCbiUXeIvuoldf0_X-122" edge="1">
          <mxGeometry relative="1" as="geometry" />
        </mxCell>
        <mxCell id="qipjCbiUXeIvuoldf0_X-60" value="&lt;div&gt;&lt;span style=&quot;background-color: initial;&quot;&gt;less than 100% identity&lt;/span&gt;&lt;br&gt;&lt;/div&gt;&lt;div&gt;&lt;span style=&quot;background-color: initial;&quot;&gt;but more or equal to 90%&lt;/span&gt;&lt;/div&gt;" style="rounded=0;whiteSpace=wrap;html=1;dashed=1;dashPattern=8 8;" parent="1" vertex="1">
          <mxGeometry x="270" y="650" width="180" height="40" as="geometry" />
        </mxCell>
        <mxCell id="qipjCbiUXeIvuoldf0_X-61" style="edgeStyle=orthogonalEdgeStyle;rounded=0;orthogonalLoop=1;jettySize=auto;html=1;entryX=0.5;entryY=0;entryDx=0;entryDy=0;" parent="1" source="qipjCbiUXeIvuoldf0_X-62" target="qipjCbiUXeIvuoldf0_X-63" edge="1">
          <mxGeometry relative="1" as="geometry" />
        </mxCell>
        <mxCell id="qipjCbiUXeIvuoldf0_X-62" value="mapFASTASequences.js" style="rounded=1;whiteSpace=wrap;html=1;fillColor=#f5f5f5;strokeColor=#666666;fontColor=#333333;" parent="1" vertex="1">
          <mxGeometry x="480" y="820" width="160" height="40" as="geometry" />
        </mxCell>
        <mxCell id="7p6EoumD7oMu688esFDc-9" style="edgeStyle=orthogonalEdgeStyle;rounded=0;orthogonalLoop=1;jettySize=auto;html=1;" parent="1" source="qipjCbiUXeIvuoldf0_X-63" edge="1">
          <mxGeometry relative="1" as="geometry">
            <mxPoint x="240" y="1650" as="targetPoint" />
            <Array as="points">
              <mxPoint x="690" y="900" />
              <mxPoint x="690" y="1610" />
              <mxPoint x="240" y="1610" />
            </Array>
          </mxGeometry>
        </mxCell>
        <mxCell id="qipjCbiUXeIvuoldf0_X-63" value="&lt;div&gt;palmprints.b6.gt90.faa&lt;/div&gt;" style="rounded=0;whiteSpace=wrap;html=1;" parent="1" vertex="1">
          <mxGeometry x="480" y="890" width="160" height="20" as="geometry" />
        </mxCell>
        <mxCell id="qipjCbiUXeIvuoldf0_X-126" style="edgeStyle=orthogonalEdgeStyle;rounded=0;orthogonalLoop=1;jettySize=auto;html=1;entryX=0.5;entryY=0;entryDx=0;entryDy=0;" parent="1" source="qipjCbiUXeIvuoldf0_X-65" target="qipjCbiUXeIvuoldf0_X-124" edge="1">
          <mxGeometry relative="1" as="geometry" />
        </mxCell>
        <mxCell id="qipjCbiUXeIvuoldf0_X-65" value="&lt;div&gt;&lt;span style=&quot;background-color: initial;&quot;&gt;100% match to an sOTU&lt;/span&gt;&lt;br&gt;&lt;/div&gt;" style="rounded=0;whiteSpace=wrap;html=1;dashed=1;dashPattern=8 8;" parent="1" vertex="1">
          <mxGeometry x="80" y="650" width="160" height="20" as="geometry" />
        </mxCell>
        <mxCell id="qipjCbiUXeIvuoldf0_X-82" style="edgeStyle=none;rounded=0;orthogonalLoop=1;jettySize=auto;html=1;entryX=0.5;entryY=0;entryDx=0;entryDy=0;" parent="1" source="qipjCbiUXeIvuoldf0_X-83" target="qipjCbiUXeIvuoldf0_X-84" edge="1">
          <mxGeometry relative="1" as="geometry" />
        </mxCell>
        <mxCell id="qipjCbiUXeIvuoldf0_X-83" value="&lt;div&gt;usearch&lt;/div&gt;&lt;div&gt;(makeudb_search)&lt;br&gt;&lt;/div&gt;" style="rounded=1;whiteSpace=wrap;html=1;fillColor=#f5f5f5;strokeColor=#666666;fontColor=#333333;" parent="1" vertex="1">
          <mxGeometry x="100" y="1450" width="140" height="40" as="geometry" />
        </mxCell>
        <mxCell id="qipjCbiUXeIvuoldf0_X-212" style="edgeStyle=orthogonalEdgeStyle;rounded=0;orthogonalLoop=1;jettySize=auto;html=1;entryX=0.5;entryY=0;entryDx=0;entryDy=0;" parent="1" source="qipjCbiUXeIvuoldf0_X-84" target="qipjCbiUXeIvuoldf0_X-100" edge="1">
          <mxGeometry relative="1" as="geometry" />
        </mxCell>
        <mxCell id="qipjCbiUXeIvuoldf0_X-84" value="&lt;div&gt;updated_sOTUs.udb&lt;/div&gt;" style="rounded=0;whiteSpace=wrap;html=1;" parent="1" vertex="1">
          <mxGeometry x="100" y="1520" width="140" height="20" as="geometry" />
        </mxCell>
        <mxCell id="qipjCbiUXeIvuoldf0_X-97" value="&lt;div&gt;Operation&lt;/div&gt;" style="ellipse;whiteSpace=wrap;html=1;aspect=fixed;fillStyle=auto;fillColor=#000000;fontColor=#FFFFFF;" parent="1" vertex="1">
          <mxGeometry x="590" y="350" width="70" height="70" as="geometry" />
        </mxCell>
        <mxCell id="7p6EoumD7oMu688esFDc-27" style="edgeStyle=orthogonalEdgeStyle;rounded=0;orthogonalLoop=1;jettySize=auto;html=1;entryX=0.5;entryY=0;entryDx=0;entryDy=0;" parent="1" source="qipjCbiUXeIvuoldf0_X-100" target="7p6EoumD7oMu688esFDc-26" edge="1">
          <mxGeometry relative="1" as="geometry" />
        </mxCell>
        <mxCell id="qipjCbiUXeIvuoldf0_X-100" value="&lt;div&gt;usearch&lt;/div&gt;&lt;div&gt;(usearch_global -id 0.9)&lt;br&gt;&lt;/div&gt;" style="rounded=1;whiteSpace=wrap;html=1;fillColor=#f5f5f5;strokeColor=#666666;fontColor=#333333;" parent="1" vertex="1">
          <mxGeometry x="80" y="1700" width="180" height="40" as="geometry" />
        </mxCell>
        <mxCell id="qipjCbiUXeIvuoldf0_X-110" style="edgeStyle=orthogonalEdgeStyle;rounded=0;orthogonalLoop=1;jettySize=auto;html=1;entryX=0.5;entryY=0;entryDx=0;entryDy=0;" parent="1" target="qipjCbiUXeIvuoldf0_X-109" edge="1">
          <mxGeometry relative="1" as="geometry">
            <mxPoint x="170" y="1860" as="sourcePoint" />
          </mxGeometry>
        </mxCell>
        <mxCell id="7p6EoumD7oMu688esFDc-7" style="edgeStyle=orthogonalEdgeStyle;rounded=0;orthogonalLoop=1;jettySize=auto;html=1;entryX=0.5;entryY=0;entryDx=0;entryDy=0;" parent="1" source="qipjCbiUXeIvuoldf0_X-109" edge="1">
          <mxGeometry relative="1" as="geometry">
            <mxPoint x="170" y="1960" as="targetPoint" />
          </mxGeometry>
        </mxCell>
        <mxCell id="qipjCbiUXeIvuoldf0_X-109" value="&lt;div&gt;&lt;div&gt;&lt;span style=&quot;background-color: initial;&quot;&gt;less than 100% identity&lt;/span&gt;&lt;br&gt;&lt;/div&gt;&lt;div&gt;&lt;span style=&quot;background-color: initial;&quot;&gt;but more or equal to 90%&lt;/span&gt;&lt;/div&gt;&lt;/div&gt;" style="rounded=0;whiteSpace=wrap;html=1;dashed=1;dashPattern=8 8;" parent="1" vertex="1">
          <mxGeometry x="80" y="1890" width="180" height="40" as="geometry" />
        </mxCell>
        <mxCell id="7p6EoumD7oMu688esFDc-23" style="edgeStyle=orthogonalEdgeStyle;rounded=0;orthogonalLoop=1;jettySize=auto;html=1;" parent="1" source="qipjCbiUXeIvuoldf0_X-113" edge="1">
          <mxGeometry relative="1" as="geometry">
            <mxPoint x="170" y="1400" as="targetPoint" />
          </mxGeometry>
        </mxCell>
        <mxCell id="qipjCbiUXeIvuoldf0_X-113" value="&lt;div&gt;new_sOTUs.csv&lt;/div&gt;" style="rounded=0;whiteSpace=wrap;html=1;strokeWidth=2;" parent="1" vertex="1">
          <mxGeometry x="340" y="1350" width="110" height="20" as="geometry" />
        </mxCell>
        <mxCell id="qipjCbiUXeIvuoldf0_X-115" value="&lt;div&gt;new_palmprints.csv&lt;/div&gt;" style="rounded=0;whiteSpace=wrap;html=1;strokeWidth=2;" parent="1" vertex="1">
          <mxGeometry x="140" y="2370" width="120" height="20" as="geometry" />
        </mxCell>
        <mxCell id="qipjCbiUXeIvuoldf0_X-118" style="edgeStyle=orthogonalEdgeStyle;rounded=0;orthogonalLoop=1;jettySize=auto;html=1;entryX=0.5;entryY=0;entryDx=0;entryDy=0;" parent="1" source="qipjCbiUXeIvuoldf0_X-117" edge="1">
          <mxGeometry relative="1" as="geometry">
            <mxPoint x="300" y="550" as="targetPoint" />
          </mxGeometry>
        </mxCell>
        <mxCell id="qipjCbiUXeIvuoldf0_X-117" value="&lt;div&gt;palmprints.b6&lt;/div&gt;" style="rounded=0;whiteSpace=wrap;html=1;" parent="1" vertex="1">
          <mxGeometry x="230" y="500" width="140" height="20" as="geometry" />
        </mxCell>
        <mxCell id="qipjCbiUXeIvuoldf0_X-149" style="edgeStyle=orthogonalEdgeStyle;rounded=0;orthogonalLoop=1;jettySize=auto;html=1;entryX=0.5;entryY=0;entryDx=0;entryDy=0;" parent="1" source="qipjCbiUXeIvuoldf0_X-121" target="qipjCbiUXeIvuoldf0_X-65" edge="1">
          <mxGeometry relative="1" as="geometry">
            <Array as="points">
              <mxPoint x="300" y="620" />
              <mxPoint x="160" y="620" />
            </Array>
          </mxGeometry>
        </mxCell>
        <mxCell id="qipjCbiUXeIvuoldf0_X-188" style="edgeStyle=orthogonalEdgeStyle;rounded=0;orthogonalLoop=1;jettySize=auto;html=1;" parent="1" source="qipjCbiUXeIvuoldf0_X-121" target="qipjCbiUXeIvuoldf0_X-60" edge="1">
          <mxGeometry relative="1" as="geometry">
            <Array as="points">
              <mxPoint x="300" y="620" />
              <mxPoint x="360" y="620" />
            </Array>
          </mxGeometry>
        </mxCell>
        <mxCell id="qipjCbiUXeIvuoldf0_X-121" value="filterBLAST6File.js" style="rounded=1;whiteSpace=wrap;html=1;fillColor=#f5f5f5;strokeColor=#666666;fontColor=#333333;" parent="1" vertex="1">
          <mxGeometry x="230" y="550" width="140" height="40" as="geometry" />
        </mxCell>
        <mxCell id="qipjCbiUXeIvuoldf0_X-131" style="edgeStyle=orthogonalEdgeStyle;rounded=0;orthogonalLoop=1;jettySize=auto;html=1;entryX=0.5;entryY=0;entryDx=0;entryDy=0;" parent="1" source="qipjCbiUXeIvuoldf0_X-122" target="qipjCbiUXeIvuoldf0_X-62" edge="1">
          <mxGeometry relative="1" as="geometry" />
        </mxCell>
        <mxCell id="qipjCbiUXeIvuoldf0_X-217" style="edgeStyle=orthogonalEdgeStyle;rounded=0;orthogonalLoop=1;jettySize=auto;html=1;entryX=0.5;entryY=0;entryDx=0;entryDy=0;" parent="1" source="qipjCbiUXeIvuoldf0_X-122" target="qipjCbiUXeIvuoldf0_X-158" edge="1">
          <mxGeometry relative="1" as="geometry" />
        </mxCell>
        <mxCell id="qipjCbiUXeIvuoldf0_X-122" value="&lt;div&gt;palmprints.b6.gt90&lt;/div&gt;" style="rounded=0;whiteSpace=wrap;html=1;" parent="1" vertex="1">
          <mxGeometry x="270" y="720" width="180" height="19" as="geometry" />
        </mxCell>
        <mxCell id="qipjCbiUXeIvuoldf0_X-218" style="edgeStyle=orthogonalEdgeStyle;rounded=0;orthogonalLoop=1;jettySize=auto;html=1;entryX=0.5;entryY=0;entryDx=0;entryDy=0;" parent="1" source="qipjCbiUXeIvuoldf0_X-124" target="qipjCbiUXeIvuoldf0_X-158" edge="1">
          <mxGeometry relative="1" as="geometry">
            <Array as="points">
              <mxPoint x="160" y="780" />
              <mxPoint x="360" y="780" />
            </Array>
          </mxGeometry>
        </mxCell>
        <mxCell id="qipjCbiUXeIvuoldf0_X-124" value="&lt;div&gt;palmprints.b6.eq100&lt;/div&gt;" style="rounded=0;whiteSpace=wrap;html=1;" parent="1" vertex="1">
          <mxGeometry x="80" y="720" width="160" height="19" as="geometry" />
        </mxCell>
        <mxCell id="qipjCbiUXeIvuoldf0_X-170" style="edgeStyle=orthogonalEdgeStyle;rounded=0;orthogonalLoop=1;jettySize=auto;html=1;entryX=0.5;entryY=0;entryDx=0;entryDy=0;" parent="1" source="qipjCbiUXeIvuoldf0_X-158" target="qipjCbiUXeIvuoldf0_X-9" edge="1">
          <mxGeometry relative="1" as="geometry" />
        </mxCell>
        <mxCell id="qipjCbiUXeIvuoldf0_X-158" value="commFASTAAndBLAST6.bash" style="rounded=1;whiteSpace=wrap;html=1;fillColor=#f5f5f5;strokeColor=#666666;fontColor=#333333;" parent="1" vertex="1">
          <mxGeometry x="270" y="820" width="180" height="40" as="geometry" />
        </mxCell>
        <mxCell id="qipjCbiUXeIvuoldf0_X-172" style="edgeStyle=orthogonalEdgeStyle;rounded=0;orthogonalLoop=1;jettySize=auto;html=1;entryX=0.5;entryY=0;entryDx=0;entryDy=0;" parent="1" source="qipjCbiUXeIvuoldf0_X-166" target="qipjCbiUXeIvuoldf0_X-18" edge="1">
          <mxGeometry relative="1" as="geometry" />
        </mxCell>
        <mxCell id="qipjCbiUXeIvuoldf0_X-166" value="&lt;div&gt;palmprints.b6.lt90&lt;/div&gt;" style="rounded=0;whiteSpace=wrap;html=1;" parent="1" vertex="1">
          <mxGeometry x="270" y="940" width="180" height="20" as="geometry" />
        </mxCell>
        <mxCell id="qipjCbiUXeIvuoldf0_X-177" value="&lt;b&gt;+&lt;/b&gt;" style="ellipse;whiteSpace=wrap;html=1;aspect=fixed;fillStyle=auto;fillColor=#000000;fontColor=#FFFFFF;" parent="1" vertex="1">
          <mxGeometry x="350" y="770" width="20" height="20" as="geometry" />
        </mxCell>
        <mxCell id="qipjCbiUXeIvuoldf0_X-203" style="edgeStyle=orthogonalEdgeStyle;rounded=0;orthogonalLoop=1;jettySize=auto;html=1;entryX=0.5;entryY=0;entryDx=0;entryDy=0;" parent="1" source="qipjCbiUXeIvuoldf0_X-195" target="qipjCbiUXeIvuoldf0_X-202" edge="1">
          <mxGeometry relative="1" as="geometry" />
        </mxCell>
        <mxCell id="qipjCbiUXeIvuoldf0_X-195" value="commFASTAAndFASTA.bash" style="rounded=1;whiteSpace=wrap;html=1;fillColor=#f5f5f5;strokeColor=#666666;fontColor=#333333;" parent="1" vertex="1">
          <mxGeometry x="480" y="1110" width="180" height="40" as="geometry" />
        </mxCell>
        <mxCell id="qipjCbiUXeIvuoldf0_X-198" style="edgeStyle=orthogonalEdgeStyle;rounded=0;orthogonalLoop=1;jettySize=auto;html=1;entryX=0.111;entryY=0;entryDx=0;entryDy=0;entryPerimeter=0;" parent="1" source="qipjCbiUXeIvuoldf0_X-23" target="qipjCbiUXeIvuoldf0_X-195" edge="1">
          <mxGeometry relative="1" as="geometry" />
        </mxCell>
        <mxCell id="qipjCbiUXeIvuoldf0_X-199" style="edgeStyle=orthogonalEdgeStyle;rounded=0;orthogonalLoop=1;jettySize=auto;html=1;entryX=0.111;entryY=1;entryDx=0;entryDy=0;entryPerimeter=0;" parent="1" source="qipjCbiUXeIvuoldf0_X-28" target="qipjCbiUXeIvuoldf0_X-195" edge="1">
          <mxGeometry relative="1" as="geometry" />
        </mxCell>
        <mxCell id="qipjCbiUXeIvuoldf0_X-205" style="edgeStyle=orthogonalEdgeStyle;rounded=0;orthogonalLoop=1;jettySize=auto;html=1;entryX=0.5;entryY=0;entryDx=0;entryDy=0;" parent="1" source="qipjCbiUXeIvuoldf0_X-202" target="qipjCbiUXeIvuoldf0_X-204" edge="1">
          <mxGeometry relative="1" as="geometry" />
        </mxCell>
        <mxCell id="qipjCbiUXeIvuoldf0_X-202" value="&lt;div&gt;maybe_new_palmprints.comm&lt;/div&gt;" style="rounded=0;whiteSpace=wrap;html=1;" parent="1" vertex="1">
          <mxGeometry x="480" y="1230" width="180" height="20" as="geometry" />
        </mxCell>
        <mxCell id="qipjCbiUXeIvuoldf0_X-207" style="edgeStyle=orthogonalEdgeStyle;rounded=0;orthogonalLoop=1;jettySize=auto;html=1;entryX=0.5;entryY=0;entryDx=0;entryDy=0;" parent="1" source="qipjCbiUXeIvuoldf0_X-204" target="qipjCbiUXeIvuoldf0_X-206" edge="1">
          <mxGeometry relative="1" as="geometry" />
        </mxCell>
        <mxCell id="qipjCbiUXeIvuoldf0_X-204" value="mapFASTASequences.js" style="rounded=1;whiteSpace=wrap;html=1;fillColor=#f5f5f5;strokeColor=#666666;fontColor=#333333;" parent="1" vertex="1">
          <mxGeometry x="480" y="1280" width="180" height="40" as="geometry" />
        </mxCell>
        <mxCell id="qipjCbiUXeIvuoldf0_X-206" value="&lt;div&gt;maybe_new_palmprints.faa&lt;/div&gt;" style="rounded=0;whiteSpace=wrap;html=1;" parent="1" vertex="1">
          <mxGeometry x="480" y="1510" width="180" height="20" as="geometry" />
        </mxCell>
        <mxCell id="qipjCbiUXeIvuoldf0_X-223" style="edgeStyle=orthogonalEdgeStyle;rounded=0;orthogonalLoop=1;jettySize=auto;html=1;entryX=0.5;entryY=0;entryDx=0;entryDy=0;" parent="1" source="qipjCbiUXeIvuoldf0_X-213" target="pcEnY2RNjyqCKXGkyiXo-23" edge="1">
          <mxGeometry relative="1" as="geometry" />
        </mxCell>
        <mxCell id="qipjCbiUXeIvuoldf0_X-213" value="palm_annot" style="rounded=1;whiteSpace=wrap;html=1;fillColor=#f5f5f5;strokeColor=#666666;fontColor=#333333;dashed=1;dashPattern=8 8;" parent="1" vertex="1">
          <mxGeometry x="230" y="200" width="140" height="40" as="geometry" />
        </mxCell>
        <mxCell id="qipjCbiUXeIvuoldf0_X-227" value="" style="shape=partialRectangle;whiteSpace=wrap;html=1;top=0;bottom=0;fillColor=#FFFFFF;" parent="1" vertex="1">
          <mxGeometry x="30" y="830" width="20" height="20" as="geometry" />
        </mxCell>
        <mxCell id="qipjCbiUXeIvuoldf0_X-229" value="" style="endArrow=none;html=1;rounded=0;exitX=0.5;exitY=1;exitDx=0;exitDy=0;" parent="1" source="qipjCbiUXeIvuoldf0_X-227" edge="1">
          <mxGeometry width="50" height="50" relative="1" as="geometry">
            <mxPoint x="-10" y="880" as="sourcePoint" />
            <mxPoint x="40" y="830" as="targetPoint" />
          </mxGeometry>
        </mxCell>
        <mxCell id="VFu0eOYfGQJj1M0cjpmJ-3" value="&lt;div&gt;new_sOTUs.faa&lt;/div&gt;" style="rounded=0;whiteSpace=wrap;html=1;" parent="1" vertex="1">
          <mxGeometry x="270" y="1300" width="110" height="20" as="geometry" />
        </mxCell>
        <mxCell id="VFu0eOYfGQJj1M0cjpmJ-10" value="" style="endArrow=classic;html=1;rounded=0;" parent="1" edge="1">
          <mxGeometry width="50" height="50" relative="1" as="geometry">
            <mxPoint x="290" y="1270" as="sourcePoint" />
            <mxPoint x="290" y="1300" as="targetPoint" />
          </mxGeometry>
        </mxCell>
        <mxCell id="VFu0eOYfGQJj1M0cjpmJ-11" value="" style="endArrow=classic;html=1;rounded=0;entryX=0.818;entryY=0;entryDx=0;entryDy=0;entryPerimeter=0;" parent="1" target="qipjCbiUXeIvuoldf0_X-113" edge="1">
          <mxGeometry width="50" height="50" relative="1" as="geometry">
            <mxPoint x="430" y="1270" as="sourcePoint" />
            <mxPoint x="430" y="1300" as="targetPoint" />
          </mxGeometry>
        </mxCell>
        <mxCell id="7p6EoumD7oMu688esFDc-3" value="assignPalmIDAndNicknames.js" style="rounded=1;whiteSpace=wrap;html=1;fillColor=#f5f5f5;strokeColor=#666666;fontColor=#333333;" parent="1" vertex="1">
          <mxGeometry x="270" y="1230" width="180" height="40" as="geometry" />
        </mxCell>
        <mxCell id="7p6EoumD7oMu688esFDc-12" value="assignPalmIDAndNicknames.js" style="rounded=1;whiteSpace=wrap;html=1;fillColor=#f5f5f5;strokeColor=#666666;fontColor=#333333;" parent="1" vertex="1">
          <mxGeometry x="80" y="2250" width="180" height="40" as="geometry" />
        </mxCell>
        <mxCell id="7p6EoumD7oMu688esFDc-16" style="edgeStyle=orthogonalEdgeStyle;rounded=0;orthogonalLoop=1;jettySize=auto;html=1;entryX=0;entryY=0.5;entryDx=0;entryDy=0;" parent="1" source="7p6EoumD7oMu688esFDc-15" target="7p6EoumD7oMu688esFDc-3" edge="1">
          <mxGeometry relative="1" as="geometry" />
        </mxCell>
        <mxCell id="7p6EoumD7oMu688esFDc-15" value="greatest assigned palm_id number" style="rounded=0;whiteSpace=wrap;html=1;dashed=1;dashPattern=8 8;" parent="1" vertex="1">
          <mxGeometry x="125" y="1230" width="115" height="40" as="geometry" />
        </mxCell>
        <mxCell id="7p6EoumD7oMu688esFDc-24" style="edgeStyle=orthogonalEdgeStyle;rounded=0;orthogonalLoop=1;jettySize=auto;html=1;entryX=0.5;entryY=0;entryDx=0;entryDy=0;" parent="1" source="7p6EoumD7oMu688esFDc-19" target="qipjCbiUXeIvuoldf0_X-83" edge="1">
          <mxGeometry relative="1" as="geometry" />
        </mxCell>
        <mxCell id="7p6EoumD7oMu688esFDc-19" value="&lt;div&gt;updated_sOTUs.faa&lt;/div&gt;" style="rounded=0;whiteSpace=wrap;html=1;" parent="1" vertex="1">
          <mxGeometry x="100" y="1400" width="140" height="20" as="geometry" />
        </mxCell>
        <mxCell id="qipjCbiUXeIvuoldf0_X-98" value="&lt;b&gt;+&lt;/b&gt;" style="ellipse;whiteSpace=wrap;html=1;aspect=fixed;fillStyle=auto;fillColor=#000000;fontColor=#FFFFFF;" parent="1" vertex="1">
          <mxGeometry x="160" y="1350" width="20" height="20" as="geometry" />
        </mxCell>
        <mxCell id="7p6EoumD7oMu688esFDc-28" style="edgeStyle=orthogonalEdgeStyle;rounded=0;orthogonalLoop=1;jettySize=auto;html=1;entryX=0.5;entryY=0;entryDx=0;entryDy=0;" parent="1" source="7p6EoumD7oMu688esFDc-26" edge="1">
          <mxGeometry relative="1" as="geometry">
            <mxPoint x="170" y="1820" as="targetPoint" />
          </mxGeometry>
        </mxCell>
        <mxCell id="7p6EoumD7oMu688esFDc-26" value="&lt;div&gt;all_new_palmprints.b6&lt;/div&gt;" style="rounded=0;whiteSpace=wrap;html=1;" parent="1" vertex="1">
          <mxGeometry x="80" y="1770" width="180" height="20" as="geometry" />
        </mxCell>
        <mxCell id="7p6EoumD7oMu688esFDc-29" value="&lt;div&gt;all_new_palmprints.faa&lt;/div&gt;" style="rounded=0;whiteSpace=wrap;html=1;" parent="1" vertex="1">
          <mxGeometry x="220" y="1650" width="140" height="20" as="geometry" />
        </mxCell>
        <mxCell id="7p6EoumD7oMu688esFDc-30" style="edgeStyle=orthogonalEdgeStyle;rounded=0;orthogonalLoop=1;jettySize=auto;html=1;entryX=0.143;entryY=0;entryDx=0;entryDy=0;entryPerimeter=0;" parent="1" source="qipjCbiUXeIvuoldf0_X-206" target="7p6EoumD7oMu688esFDc-29" edge="1">
          <mxGeometry relative="1" as="geometry">
            <Array as="points">
              <mxPoint x="570" y="1570" />
              <mxPoint x="240" y="1570" />
            </Array>
          </mxGeometry>
        </mxCell>
        <mxCell id="qipjCbiUXeIvuoldf0_X-233" value="&lt;b&gt;+&lt;/b&gt;" style="ellipse;whiteSpace=wrap;html=1;aspect=fixed;fillStyle=auto;fillColor=#000000;fontColor=#FFFFFF;" parent="1" vertex="1">
          <mxGeometry x="230" y="1600" width="20" height="20" as="geometry" />
        </mxCell>
        <mxCell id="7p6EoumD7oMu688esFDc-31" value="" style="endArrow=classic;html=1;rounded=0;" parent="1" edge="1">
          <mxGeometry width="50" height="50" relative="1" as="geometry">
            <mxPoint x="240" y="1670" as="sourcePoint" />
            <mxPoint x="240" y="1700" as="targetPoint" />
          </mxGeometry>
        </mxCell>
        <mxCell id="xhpkhpluwPyCztWJii3I-1" value="filterBLAST6File.js" style="rounded=1;whiteSpace=wrap;html=1;fillColor=#f5f5f5;strokeColor=#666666;fontColor=#333333;" vertex="1" parent="1">
          <mxGeometry x="80" y="1820" width="180" height="40" as="geometry" />
        </mxCell>
        <mxCell id="xhpkhpluwPyCztWJii3I-3" style="edgeStyle=orthogonalEdgeStyle;rounded=0;orthogonalLoop=1;jettySize=auto;html=1;" edge="1" parent="1" source="xhpkhpluwPyCztWJii3I-2">
          <mxGeometry relative="1" as="geometry">
            <mxPoint x="170" y="2010" as="targetPoint" />
          </mxGeometry>
        </mxCell>
        <mxCell id="xhpkhpluwPyCztWJii3I-2" value="&lt;div&gt;all_new_palmprints.b6.gt90&lt;/div&gt;" style="rounded=0;whiteSpace=wrap;html=1;" vertex="1" parent="1">
          <mxGeometry x="80" y="1960" width="180" height="19" as="geometry" />
        </mxCell>
        <mxCell id="xhpkhpluwPyCztWJii3I-7" style="edgeStyle=orthogonalEdgeStyle;rounded=0;orthogonalLoop=1;jettySize=auto;html=1;entryX=0.5;entryY=0;entryDx=0;entryDy=0;" edge="1" parent="1" source="xhpkhpluwPyCztWJii3I-4" target="xhpkhpluwPyCztWJii3I-5">
          <mxGeometry relative="1" as="geometry" />
        </mxCell>
        <mxCell id="xhpkhpluwPyCztWJii3I-4" value="mapFASTASequences.js" style="rounded=1;whiteSpace=wrap;html=1;fillColor=#f5f5f5;strokeColor=#666666;fontColor=#333333;" vertex="1" parent="1">
          <mxGeometry x="80" y="2010" width="180" height="40" as="geometry" />
        </mxCell>
        <mxCell id="xhpkhpluwPyCztWJii3I-15" style="edgeStyle=orthogonalEdgeStyle;rounded=0;orthogonalLoop=1;jettySize=auto;html=1;entryX=0.5;entryY=0;entryDx=0;entryDy=0;" edge="1" parent="1" source="xhpkhpluwPyCztWJii3I-5" target="xhpkhpluwPyCztWJii3I-13">
          <mxGeometry relative="1" as="geometry" />
        </mxCell>
        <mxCell id="xhpkhpluwPyCztWJii3I-5" value="&lt;div&gt;all_new_palmprints.b6.gt90.faa&lt;/div&gt;" style="rounded=0;whiteSpace=wrap;html=1;" vertex="1" parent="1">
          <mxGeometry x="80" y="2080" width="180" height="19" as="geometry" />
        </mxCell>
        <mxCell id="xhpkhpluwPyCztWJii3I-11" style="edgeStyle=orthogonalEdgeStyle;rounded=0;orthogonalLoop=1;jettySize=auto;html=1;entryX=0;entryY=0.5;entryDx=0;entryDy=0;" edge="1" parent="1" source="xhpkhpluwPyCztWJii3I-8" target="7p6EoumD7oMu688esFDc-12">
          <mxGeometry relative="1" as="geometry" />
        </mxCell>
        <mxCell id="xhpkhpluwPyCztWJii3I-8" value="greatest assigned palm_id number" style="rounded=0;whiteSpace=wrap;html=1;dashed=1;dashPattern=8 8;" vertex="1" parent="1">
          <mxGeometry x="-65" y="2250" width="115" height="40" as="geometry" />
        </mxCell>
        <mxCell id="xhpkhpluwPyCztWJii3I-17" style="edgeStyle=orthogonalEdgeStyle;rounded=0;orthogonalLoop=1;jettySize=auto;html=1;entryX=0.5;entryY=0;entryDx=0;entryDy=0;" edge="1" parent="1" source="xhpkhpluwPyCztWJii3I-13" target="xhpkhpluwPyCztWJii3I-14">
          <mxGeometry relative="1" as="geometry" />
        </mxCell>
        <mxCell id="xhpkhpluwPyCztWJii3I-13" value="removeDuplicatePalmprints.js" style="rounded=1;whiteSpace=wrap;html=1;fillColor=#f5f5f5;strokeColor=#666666;fontColor=#333333;" vertex="1" parent="1">
          <mxGeometry x="80" y="2130" width="180" height="40" as="geometry" />
        </mxCell>
        <mxCell id="xhpkhpluwPyCztWJii3I-21" style="edgeStyle=orthogonalEdgeStyle;rounded=0;orthogonalLoop=1;jettySize=auto;html=1;entryX=0.5;entryY=0;entryDx=0;entryDy=0;" edge="1" parent="1" source="xhpkhpluwPyCztWJii3I-14" target="7p6EoumD7oMu688esFDc-12">
          <mxGeometry relative="1" as="geometry" />
        </mxCell>
        <mxCell id="xhpkhpluwPyCztWJii3I-14" value="&lt;div&gt;unique_new_palmprints.faa&lt;/div&gt;" style="rounded=0;whiteSpace=wrap;html=1;" vertex="1" parent="1">
          <mxGeometry x="80" y="2200" width="180" height="19" as="geometry" />
        </mxCell>
        <mxCell id="xhpkhpluwPyCztWJii3I-18" value="&lt;div&gt;new_palmprints.faa&lt;/div&gt;" style="rounded=0;whiteSpace=wrap;html=1;" vertex="1" parent="1">
          <mxGeometry x="80" y="2320" width="120" height="19" as="geometry" />
        </mxCell>
        <mxCell id="xhpkhpluwPyCztWJii3I-19" value="" style="endArrow=classic;html=1;rounded=0;" edge="1" parent="1">
          <mxGeometry width="50" height="50" relative="1" as="geometry">
            <mxPoint x="100" y="2290" as="sourcePoint" />
            <mxPoint x="100" y="2320" as="targetPoint" />
          </mxGeometry>
        </mxCell>
        <mxCell id="xhpkhpluwPyCztWJii3I-20" value="" style="endArrow=classic;html=1;rounded=0;entryX=0.818;entryY=0;entryDx=0;entryDy=0;entryPerimeter=0;" edge="1" parent="1">
          <mxGeometry width="50" height="50" relative="1" as="geometry">
            <mxPoint x="240" y="2290" as="sourcePoint" />
            <mxPoint x="240" y="2370" as="targetPoint" />
          </mxGeometry>
        </mxCell>
      </root>
    </mxGraphModel>
  </diagram>
</mxfile>
